<svg width="100%" height="100%" id="svg" viewBox="0 0 1440 490" xmlns="http://www.w3.org/2000/svg" class="transition duration-300 ease-in-out delay-150"><path d="M 0,500 L 0,93 C 235.5,87 471,81 711,81 C 951,81 1195.5,87 1440,93 L 1440,500 L 0,500 Z" stroke="none" stroke-width="0" fill="#e6e6fa" fill-opacity="0.4" class="transition-all duration-300 ease-in-out delay-150 path-0"></path><path d="M 0,500 L 0,218 C 228.5,208 457,198 697,198 C 937,198 1188.5,208 1440,218 L 1440,500 L 0,500 Z" stroke="none" stroke-width="0" fill="#e6e6fa" fill-opacity="0.53" class="transition-all duration-300 ease-in-out delay-150 path-1"></path><path d="M 0,500 L 0,343 C 289,359 578,375 818,375 C 1058,375 1249,359 1440,343 L 1440,500 L 0,500 Z" stroke="none" stroke-width="0" fill="#e6e6fa" fill-opacity="1" class="transition-all duration-300 ease-in-out delay-150 path-2"></path></svg>